<svg id="Layer_1" data-name="Layer 1" xmlns="http://www.w3.org/2000/svg" viewBox="0 0 574.5 151.98"><defs><style>.cls-1{fill:#009fdc;}.cls-2{fill:#fff;}.cls-3{fill:#f67a3c;stroke:#fff;stroke-miterlimit:10;}.cls-4{fill:none;}</style></defs><path class="cls-1" d="M416.19,21.21c55.28-.36,110.6-.06,165.9-.15,3.81-.33,6.26,3.24,7.66,6.3a31.64,31.64,0,0,1,0,24.3c-1.36,3.11-3.84,6.7-7.7,6.33q-82.56,0-165.13,0c-3.56-.54-5.59-4-6.87-7a33.07,33.07,0,0,1-.24-22.25C411.05,25.69,412.86,22.24,416.19,21.21ZM544.46,51c1.14-.48,2.27-1,3.41-1.53,2.17,1.44,5,2.12,7.39.77,5.17-2.95,5.59-11,1.83-15.27-2.61-2.82-7-2.23-9.76,0,.11-2.82.14-5.64.15-8.46L544.6,27C544.26,35,544.58,43,544.46,51Zm29.37-24.2c0,2.7.1,5.41.28,8.11-2.56-1.7-6-2.75-8.75-.81-5.14,3.81-4.76,13.47,1.18,16.34,2.32,1.11,4.9.36,7-.88A25.45,25.45,0,0,0,576.82,51c.06-8.06,0-16.13,0-24.2Zm-47.35,6.43-2.22.4c0,.47,0,1.4.06,1.87l2.34.36c0,4.36-.44,8.77.26,13.09,1,2.28,3.87,1.65,5.86,2,0-.65.07-1.93.1-2.57l-3.16-.64c-.21-4-.13-8-.17-12l3.12-.15c0-.54,0-1.62,0-2.16l-3.09-.1c.05-2.09.07-4.19.06-6.28C527,28.19,526.19,30.53,526.48,33.22ZM418.84,39.84c2.49,3.92,8.3,2.6,11.26,6.09-1.48,1.25-3,3.07-5.15,2.64-2.38.15-3.47-2.26-4.73-3.8-.64.54-2.71.55-2.1,1.75,1.49,4.8,7.74,5.47,11.65,3.42,2.74-1.43,3.77-5.89,1-7.8-2.72-1.56-5.87-2.1-8.82-3l-1-2.16c2.78-2.15,6.64-1.9,8.45,1.32l2.78-.74c-1.34-2.79-4-4.88-7.22-4.49C421.32,32.54,417,36,418.84,39.84ZM438.9,35a8.15,8.15,0,0,0-3.09-2.09c-.13,5.9,0,11.79-.1,17.69l3.11,0c0-4.14-.52-8.36.35-12.45.78-2.7,5.5-3.85,6.51-.79.57,4.4.12,8.86.21,13.29l3.1-.1c0-4.11-.51-8.29.33-12.35.72-2.78,5.18-3.79,6.54-1,.68,4.41.22,8.9.19,13.34l3.09.12c-.14-4.82.46-9.71-.37-14.49-1.51-4.38-7.46-3.63-10.18-.85A6.73,6.73,0,0,0,438.9,35Zm23.86,4c1.47,5.08,8.79,2.79,11,6.95-1.82,4.19-7.67,2.91-9.12-.88l-2.91.48c1.15,1.94,2.13,4.44,4.58,5,3.48.92,8.33.5,9.92-3.29a4.46,4.46,0,0,0-3.43-6.16c-2.47-1.34-7-.7-7.47-4.17a4.81,4.81,0,0,1,6.83-.19c1.11,1.33,2.68,1.32,4.27,1.08-1.14-2.21-2.72-4.63-5.5-4.7C467.28,32.18,461.7,34.45,462.76,39Zm26.34-5.59c.13,5.69.15,11.38,0,17.08l3.12.16c.06-4.08-.41-8.21.32-12.24.74-3.37,6.7-4.09,7.53-.43.55,4.16.13,8.39.15,12.57l3.09.06c-.18-4.79.46-9.67-.47-14.39-1.88-4.5-8.13-3.75-11.15-.86,0-.53.11-1.6.15-2.13Zm20.55,16c2.17,1.73,5.2,1.83,7.82,1.3s4-3.06,5.43-5.11l-3.09-.51c-1.46,1.71-3.12,4.16-5.75,3.46-2.91-.38-3.86-3.37-4.74-5.7,4.51-.08,9,0,13.54-.1,0-4.54-2.62-10-7.87-9.7C506.58,32.29,503.77,44.72,509.65,49.39ZM480.73,47.2c0,1.13,0,2.27-.05,3.41h3.53c0-1.12,0-2.23.07-3.35Zm55.4,0c0,1.12-.06,2.25-.07,3.37l3.49,0c0-1.13,0-2.26,0-3.38Z" transform="translate(-21.52 -21.03)"/><path class="cls-1" d="M509.39,40.25c1.09-2.26,2.6-5.18,5.62-4.8,2.77-.11,3.87,2.79,4.94,4.8C516.43,40.36,512.91,40.37,509.39,40.25Z" transform="translate(-21.52 -21.03)"/><path class="cls-1" d="M549.45,36.33c2.77-2.46,6.8.48,6.87,3.73.83,3.51-.78,9-5.24,8.48C546.15,47.06,546,39.38,549.45,36.33Z" transform="translate(-21.52 -21.03)"/><path class="cls-1" d="M567.31,36.09c2.87-2,6.53.82,6.72,3.94.86,3.45-.52,9-5,8.5C563.91,47.14,563.57,39.07,567.31,36.09Z" transform="translate(-21.52 -21.03)"/><path class="cls-2" d="M544.46,51c.12-8-.2-16,.14-24l2.88-.48c0,2.82,0,5.64-.15,8.46,2.77-2.25,7.15-2.84,9.76,0,3.76,4.24,3.34,12.32-1.83,15.27-2.41,1.35-5.22.67-7.39-.77C546.73,50,545.6,50.51,544.46,51Zm5-14.66c-3.48,3.05-3.3,10.73,1.63,12.21,4.46.5,6.07-5,5.24-8.48C556.25,36.81,552.22,33.87,549.45,36.33Z" transform="translate(-21.52 -21.03)"/><path class="cls-2" d="M573.83,26.79h3c-.09,8.07,0,16.14,0,24.2a25.45,25.45,0,0,1-3.29-1.45c-2.09,1.24-4.67,2-7,.88-5.94-2.87-6.32-12.53-1.18-16.34,2.74-1.94,6.19-.89,8.75.81C573.93,32.2,573.86,29.49,573.83,26.79Zm-6.52,9.3c-3.74,3-3.4,11,1.7,12.44,4.5.53,5.88-5.05,5-8.5C573.84,36.91,570.18,34.1,567.31,36.09Z" transform="translate(-21.52 -21.03)"/><path class="cls-2" d="M526.48,33.22c-.29-2.69.47-5,3.11-6.17,0,2.09,0,4.19-.06,6.28l3.09.1c0,.54,0,1.62,0,2.16l-3.12.15c0,4,0,8,.17,12l3.16.64c0,.64-.08,1.92-.1,2.57-2-.36-4.87.27-5.86-2-.7-4.32-.24-8.73-.26-13.09l-2.34-.36c0-.47,0-1.4-.06-1.87Z" transform="translate(-21.52 -21.03)"/><path class="cls-2" d="M418.84,39.84c-1.89-3.8,2.48-7.3,6.09-6.82,3.26-.39,5.88,1.7,7.22,4.49l-2.78.74c-1.81-3.22-5.67-3.47-8.45-1.32l1,2.16c2.95.95,6.1,1.49,8.82,3,2.77,1.91,1.74,6.37-1,7.8-3.91,2.05-10.16,1.38-11.65-3.42-.61-1.2,1.46-1.21,2.1-1.75,1.26,1.54,2.35,3.95,4.73,3.8,2.18.43,3.67-1.39,5.15-2.64C427.14,42.44,421.33,43.76,418.84,39.84Z" transform="translate(-21.52 -21.03)"/><path class="cls-2" d="M438.9,35a6.73,6.73,0,0,1,9.69.33c2.72-2.78,8.67-3.53,10.18.85.83,4.78.23,9.67.37,14.49l-3.09-.12c0-4.44.49-8.93-.19-13.34-1.36-2.78-5.82-1.77-6.54,1-.84,4.06-.32,8.24-.33,12.35l-3.1.1c-.09-4.43.36-8.89-.21-13.29-1-3.06-5.73-1.91-6.51.79-.87,4.09-.31,8.31-.35,12.45l-3.11,0c.11-5.9,0-11.79.1-17.69A8.15,8.15,0,0,1,438.9,35Z" transform="translate(-21.52 -21.03)"/><path class="cls-2" d="M462.76,39c-1.06-4.57,4.52-6.84,8.21-5.86,2.78.07,4.36,2.49,5.5,4.7-1.59.24-3.16.25-4.27-1.08a4.81,4.81,0,0,0-6.83.19c.48,3.47,5,2.83,7.47,4.17a4.46,4.46,0,0,1,3.43,6.16c-1.59,3.79-6.44,4.21-9.92,3.29-2.45-.58-3.43-3.08-4.58-5l2.91-.48c1.45,3.79,7.3,5.07,9.12.88C471.55,41.81,464.23,44.1,462.76,39Z" transform="translate(-21.52 -21.03)"/><path class="cls-2" d="M489.1,33.43l2.72-.18c0,.53-.11,1.6-.15,2.13,3-2.89,9.27-3.64,11.15.86.93,4.72.29,9.6.47,14.39l-3.09-.06c0-4.18.4-8.41-.15-12.57-.83-3.66-6.79-2.94-7.53.43-.73,4-.26,8.16-.32,12.24l-3.12-.16C489.25,44.81,489.23,39.12,489.1,33.43Z" transform="translate(-21.52 -21.03)"/><path class="cls-2" d="M509.65,49.39c-5.88-4.67-3.07-17.1,5.34-16.36,5.25-.26,7.85,5.16,7.87,9.7-4.51.1-9,0-13.54.1.88,2.33,1.83,5.32,4.74,5.7,2.63.7,4.29-1.75,5.75-3.46l3.09.51c-1.41,2.05-2.78,4.55-5.43,5.11S511.82,51.12,509.65,49.39Zm-.26-9.14c3.52.12,7,.11,10.56,0-1.07-2-2.17-4.91-4.94-4.8C512,35.07,510.48,38,509.39,40.25Z" transform="translate(-21.52 -21.03)"/><path class="cls-2" d="M480.73,47.2l3.55.07c0,1.12,0,2.23-.07,3.35h-3.53C480.69,49.47,480.71,48.33,480.73,47.2Z" transform="translate(-21.52 -21.03)"/><path class="cls-2" d="M536.13,47.25l3.37,0c0,1.12,0,2.25,0,3.38l-3.49,0C536.07,49.5,536.1,48.37,536.13,47.25Z" transform="translate(-21.52 -21.03)"/><path class="cls-2" d="M152.64,65.46c2.05-5.07,10.57-4.56,12.15.64q11.33,30,22.61,60H172.64l-3.54-9.31c-6.94,0-13.89,0-20.83-.07-1.19,3.12-2.39,6.24-3.57,9.36H130C137.64,105.89,144.87,85.57,152.64,65.46Zm5.9,24c-1.65,4.45-3.27,8.91-5.1,13.29q5.15,0,10.29,0C161.89,98.31,160.25,93.84,158.54,89.41Z" transform="translate(-21.52 -21.03)"/><path class="cls-2" d="M190.37,62.25h14.75q0,25-.06,50.06c8.84,0,17.68.07,26.51.07,0,4.55,0,9.11,0,13.66-10.19,0-20.37,0-30.55,0a9.8,9.8,0,0,1-8.29-3.83c-2.14-2.91-2.36-6.68-2.37-10.17Q190.39,87.15,190.37,62.25Z" transform="translate(-21.52 -21.03)"/><path class="cls-2" d="M238.18,62.19c8.93,0,17.86,0,26.78,0,6.22.05,13,1.76,17.09,6.79,4.45,5.55,4.86,13.13,4.26,19.94-.51,6.3-3.8,12.85-9.75,15.6-7.49,3.55-16,2.15-24,2.41,0,6.37,0,12.74,0,19.11q-7.22,0-14.42,0ZM252.5,75.92c0,5.69.09,11.37.06,17.06,4.82-.18,9.81.63,14.48-.9,6.32-2.5,6.12-13.44-.45-15.49C262,75.37,257.19,76.07,252.5,75.92Z" transform="translate(-21.52 -21.03)"/><path class="cls-2" d="M293.19,62.18H307.7c-.1,8.48-.07,17-.07,25.43h17.49V62.18h14.51c-.07,21.31-.15,42.62,0,63.93H325.12c0-8.17,0-16.34.08-24.5H307.63q0,12.25,0,24.5c-4.81,0-9.63,0-14.45,0Q293.2,94.16,293.19,62.18Z" transform="translate(-21.52 -21.03)"/><path class="cls-2" d="M368.63,65.82c1.54-4.52,8.39-5.21,11.24-1.63a29.33,29.33,0,0,1,2.47,5.62c7.15,18.72,14.07,37.53,21.22,56.25H388.82c-1.18-3.1-2.38-6.2-3.56-9.31H364.37l-3.48,9.29H346.14C353.76,106,361,85.83,368.63,65.82Zm6.1,23.6c-1.68,4.44-3.32,8.88-5.12,13.27h10.31C378.06,98.32,376.42,93.86,374.73,89.42Z" transform="translate(-21.52 -21.03)"/><path class="cls-2" d="M59.44,78.68c3.5-1.48,8.29-.88,10.62,2.35.35,1.38-.79,2.34-2,2.66-1.41-.9-2.61-2.09-4.07-2.91-1.87-.87-3.11,1.13-4.35,2.12,3.1,1.62,6.66,2.07,9.68,3.82,2.9,2.06,1.32,6.8-1.77,7.78-3.7,1.54-9.41,1.07-11.21-3-.62-1.45,1.12-2,1.92-2.87,1.68,2.72,6,6.05,8.5,2.32-1-4.14-7.64-2.41-9.71-6.07C55.38,82.6,57.18,79.65,59.44,78.68Z" transform="translate(-21.52 -21.03)"/><path class="cls-2" d="M74.36,79.27c1.22-2.45,3-.87,4.4.53,2.87-2.33,6.59-1.94,9.38.32,2.4-1.92,5.93-2.94,8.62-1,2,1.23,1.69,3.84,1.82,5.86a64.15,64.15,0,0,1-.22,8.77c-.28,2-3.49,2-4,.11-.57-3.85.35-7.82-.59-11.62-1.39-2.09-4.57-.7-4.87,1.47-.58,3.34-.06,6.76-.55,10.11-.29,2-3.91,1.9-3.93-.19-.47-3.81.27-7.71-.54-11.48a2.91,2.91,0,0,0-4.84.93c-.88,3.41-.22,7-.64,10.42-.11,2.24-3.84,2.4-4,.11A134.88,134.88,0,0,1,74.36,79.27Z" transform="translate(-21.52 -21.03)"/><path class="cls-2" d="M102.35,84.63c-1.78-4.53,4-7.63,7.81-6.58,2.69.14,4.63,2.09,6.17,4.1a23.42,23.42,0,0,1-2.72,1.42c-2.19-1.23-4.58-4.48-7.18-2.15-.18.4-.56,1.18-.74,1.58,3,1.76,6.66,1.83,9.42,3.91,2.53,2.07,1.23,6.31-1.58,7.43-3.72,1.64-9.23,1.42-11.47-2.44-.92-1.47.65-2.47,1.5-3.4A44,44,0,0,0,107.14,92c1.91,1.24,5.08.39,5.33-2.12C109.57,87.26,104.64,88.06,102.35,84.63Z" transform="translate(-21.52 -21.03)"/><path class="cls-2" d="M149.68,140.87h4.14c0,6.37-.09,12.75,0,19.12-.1,2.62,2.69,5,5.23,4.13a4.41,4.41,0,0,0,3.45-4.29c.15-6.32,0-12.65,0-19h4.09c-.15,7,.2,14-.17,21-.81,6.39-9.52,8.74-14.13,4.83a8.61,8.61,0,0,1-2.66-6.77C149.66,153.59,149.71,147.23,149.68,140.87Z" transform="translate(-21.52 -21.03)"/><path class="cls-2" d="M130.74,140.88c3.76,0,7.95-1.09,11.36,1,3.63,2.45,3.54,8.13.24,10.85,5.33,2.85,5.22,11.82-.29,14.4-3.53,1.61-7.55.8-11.31,1Q130.76,154.51,130.74,140.88Zm4.06,3.77c0,2.27,0,4.55,0,6.82,2.42.08,6-.29,6-3.48C141,144.72,137.18,144.5,134.8,144.65Zm0,10.38q0,4.6,0,9.21c2-.18,4.34,0,6.05-1.29a5.81,5.81,0,0,0,0-6.82C139.15,154.78,136.83,155.19,134.8,155Z" transform="translate(-21.52 -21.03)"/><path class="cls-2" d="M171.25,140.88h4.16c0,7.63,0,15.25,0,22.88h10.32c0,1.47,0,2.94,0,4.41-4.8,0-9.59,0-14.38,0Q171.32,154.51,171.25,140.88Z" transform="translate(-21.52 -21.03)"/><path class="cls-2" d="M188.82,140.87H193c0,4.31,0,8.62-.14,12.93,2.79-4,4.94-8.48,7.68-12.54,1.49-.77,3.36-.27,5-.5-2.5,4-4.86,8.06-7.37,12,3,5.05,5.75,10.28,8.7,15.38-1.67,0-3.34,0-5-.05-2.17-3.84-4.19-7.76-6.44-11.55-2.86,3.25-2.63,7.5-2.42,11.55l-4.14,0Q188.86,154.51,188.82,140.87Z" transform="translate(-21.52 -21.03)"/><path class="cls-2" d="M220.4,141.35c3-1.82,6.59-.77,9.54.53-.41,1.45-.83,2.91-1.22,4.38-1.54-.64-3-1.73-4.74-1.7a3,3,0,0,0-2.43,4.58c2,3.17,6.37,3.91,8.25,7.24,1.92,3.57,1.4,8.77-2.31,11-3.29,2-7.33,1.15-10.57-.48.44-1.56,1-3.1,1.49-4.63,2.11,1.18,4.87,3,7.23,1.34,1.59-1,1.41-3.24.46-4.65-2.07-3-6.2-3.78-8.08-7C216.18,148.52,216.81,143.46,220.4,141.35Z" transform="translate(-21.52 -21.03)"/><path class="cls-2" d="M232.28,168.16c1.69-9.07,3-18.23,4.74-27.29l2,0c1.93,6,3.27,12.2,5,18.29,1.81-5.93,2.88-12.08,4.88-17.95l2.1-.65c1.58,9.19,3.12,18.39,4.74,27.58l-4,0c-.92-4.8-1.28-9.7-2.45-14.46-1.8,5.26-2.7,10.85-5.22,15.84-2.44-5-3.33-10.64-5.21-15.87-1.11,4.78-1.54,9.69-2.51,14.5Z" transform="translate(-21.52 -21.03)"/><path class="cls-2" d="M260.36,141.37c3-1.84,6.6-.8,9.56.5-.41,1.47-.82,2.93-1.2,4.41-1.54-.66-3-1.75-4.74-1.72a3,3,0,0,0-2.46,4.56c1.9,3,5.82,3.75,7.85,6.62,2.46,3.53,2,9.23-1.85,11.61-3.29,2.08-7.36,1.2-10.61-.46.43-1.57.95-3.1,1.5-4.62,2.1,1.19,4.9,3,7.24,1.31,1.78-1.18,1.26-3.73.08-5.15-2.13-2.4-5.5-3.35-7.42-6C256.09,149,256.63,143.58,260.36,141.37Z" transform="translate(-21.52 -21.03)"/><path class="cls-2" d="M298.21,141.2c3-1.6,6.36-.55,9.26.62-.42,1.48-.83,3-1.22,4.47-1.9-1-4-2.33-6.19-1.44-1,1-2.1,2.71-1.07,4.08,1.88,3.2,6,4,8.08,7,2.25,3.49,1.85,8.93-1.85,11.29-3.28,2.21-7.54,1.39-10.77-.46.49-1.49,1-3,1.5-4.45,2.33,1.47,5.86,3.15,8.08.54,1.62-4.05-3-6.34-5.72-8.15C293.38,152.07,293.22,143.85,298.21,141.2Z" transform="translate(-21.52 -21.03)"/><path class="cls-2" d="M309.82,168.17c1.76-9.11,2.89-18.35,4.85-27.42l1.93.25c1.95,5.9,3.11,12.05,5.1,17.95,1.45-6,3.06-12,4.68-18l2.16,0c1.61,9.14,3.12,18.29,4.73,27.43-1.35-.07-2.68-.19-4-.36-1-4.75-1.56-9.58-2.24-14.38-1.78,4.59-2.77,9.46-4.52,14.06L321.07,169c-1.78-5-3-10.26-4.91-15.26-.68,4.81-1.48,9.61-2.31,14.4Z" transform="translate(-21.52 -21.03)"/><path class="cls-2" d="M338.24,141.16c3-1.51,6.32-.52,9.2.65-.4,1.49-.8,3-1.18,4.48-2.09-1.14-5.68-3.13-7.19-.22-1.72,3.31,2.43,5.41,4.7,7,4.58,2.21,6.26,8.82,3,12.8-2.93,3.57-8.42,3.35-12.08,1.09a28.49,28.49,0,0,1,1.15-4.63c2.07,1.05,4.51,2.84,6.9,1.54,1.9-.62,2-3.11,1.09-4.57-1.81-2.95-5.53-3.81-7.71-6.38C333.42,149.33,334.14,143.34,338.24,141.16Z" transform="translate(-21.52 -21.03)"/><path class="cls-2" d="M360.51,152.12c.38-5.27,3.95-10.86,9.54-11.57,3.06-.73,6,.65,8.48,2.31-.6,1.34-1.18,2.68-1.76,4-2.43-1.61-5.62-3.17-8.31-1.17-4.55,3.4-4.79,10.49-2.34,15.21,1.7,3.34,6,4.1,9.13,2.3,0-1.89,0-3.78.08-5.66l-3.35-.1V153.4c2.46-.06,4.92-.06,7.38-.06-.06,4.2,0,8.41-.06,12.62-4,2.43-9.31,3.86-13.49,1.15C361,163.9,359.94,157.48,360.51,152.12Z" transform="translate(-21.52 -21.03)"/><path class="cls-2" d="M380.5,168.17c3.27-9.21,6-18.61,9.36-27.78l1.72.36c3.16,9.11,6,18.33,9.21,27.43l-4.64-.05-1.65-5.57h-7.72c-.55,1.86-1.09,3.73-1.64,5.59Zm10.23-19.09c-1.08,3.18-1.87,6.45-2.9,9.65l5.5.1C392.36,155.6,391.55,152.34,390.73,149.08Z" transform="translate(-21.52 -21.03)"/><path class="cls-2" d="M400.92,140.87h18.94c0,1.46,0,2.92.07,4.38h-7.62c.1,7.64,0,15.28.06,22.92l-4.15,0c.06-7.64,0-15.27,0-22.91h-7.36C400.91,143.79,400.91,142.33,400.92,140.87Z" transform="translate(-21.52 -21.03)"/><path class="cls-2" d="M422.45,168.16c0-9.09,0-18.19,0-27.29H437q.1,2.19.24,4.38c-3.54,0-7.08,0-10.62,0q0,3.12,0,6.24h7.64c0,1,0,3.13,0,4.18h-7.63c0,2.69,0,5.38,0,8.08q5.18,0,10.37,0c0,1.46,0,2.92-.05,4.39C432.07,168.15,427.26,168.12,422.45,168.16Z" transform="translate(-21.52 -21.03)"/><path class="cls-2" d="M438.42,140.85l4.19,0c1.53,5.41,2.73,10.91,4.31,16.31,1.74-5.65,2.81-11.51,5-17l1.65,1.79c1.62,5.07,2.74,10.28,4.4,15.34,1.31-5.5,2.67-11,4.14-16.43l4.36,0c-2.26,8-4.37,16.13-6.52,24.2a14.08,14.08,0,0,1-2,4.4c-2.58-5.73-3.5-12-5.75-17.87-1.48,5.59-3,11.17-4.64,16.72l-1.64.23C443.26,159.37,440.8,150.11,438.42,140.85Z" transform="translate(-21.52 -21.03)"/><path class="cls-2" d="M475.93,140c2.22,1.12,2.43,3.74,3.23,5.82,2.51,7.46,4.93,15,7.49,22.41l-4.6-.05q-.85-2.79-1.7-5.58h-7.71q-.81,2.79-1.6,5.59l-4.66,0C469.69,158.82,472.41,149.24,475.93,140Zm.4,9.19q-1.14,4.88-2.6,9.66l5.5,0C478.25,155.57,477.47,152.3,476.33,149.14Z" transform="translate(-21.52 -21.03)"/><path class="cls-2" d="M486.51,140.83l4.47.06c1.82,3.8,3.6,7.63,5.29,11.51,1.93-3.79,3.64-7.68,5.49-11.51l4.43-.06c-2.55,5.23-5.12,10.46-7.54,15.75-.61,3.8-.06,7.73-.22,11.58h-4.09c-.41-4.71,1.21-9.89-1.42-14.16C490.77,149.61,488.71,145.19,486.51,140.83Z" transform="translate(-21.52 -21.03)"/><path class="cls-2" d="M519.17,143.08c2.63-3.65,8.05-3.25,11.37-.77-.57,1.13-1.14,2.27-1.7,3.4-1.75-1-4-2.35-5.85-.77-2.22,1.59-1.23,4.38-.2,6.35h5.49c0-.75,0-2.27-.07-3,1.37-.65,2.73-1.3,4.12-1.94-.07,1.67-.13,3.34-.19,5,1.32,0,2.65,0,4,0v4l-4,.07a63.12,63.12,0,0,0,.3,7.53c.32,2.09,2.71,1.07,4.13,1.05-.05,1.37-.1,2.74-.14,4.11-2.2.44-4.47.59-6.48-.6-3.14,1-7.05,1.81-9.82-.51-3.73-3.66-3.52-10.08-.57-14.16C517.55,150,516.79,146,519.17,143.08Zm3.69,20.17c1.37,1.57,3.61.83,5.43.94,0-2.95-.06-5.91,0-8.86q-2.91,0-5.79,0C521.52,157.82,520.67,161.17,522.86,163.25Z" transform="translate(-21.52 -21.03)"/><path class="cls-2" d="M547.71,168.17c3.25-9.08,5.85-18.41,9.28-27.42,1.71-1.78,2,1.34,2.62,2.32,2.78,8.37,5.53,16.75,8.37,25.11l-4.6-.06c-.56-1.85-1.13-3.69-1.67-5.54-2.58,0-5.16,0-7.72,0-.55,1.87-1.09,3.73-1.66,5.59Zm7.36-9.42,5.47.06c-1-3.27-1.77-6.59-2.58-9.9C556.76,152.12,556.15,155.5,555.07,158.75Z" transform="translate(-21.52 -21.03)"/><path class="cls-2" d="M570.23,140.87c3.88-.15,8-.67,11.65,1.13,4.31,2.32,4.29,8.41,2.38,12.31-1.81,3.69-6.38,4-10,4,.13,3.27.11,6.55.1,9.83l-4.15,0C570.27,159.06,570.25,150,570.23,140.87ZM574.4,145c0,3-.06,6,0,9,1.61-.13,3.32,0,4.84-.66,2.09-1.09,2.49-4,1.61-6C579.53,145,576.65,145.22,574.4,145Z" transform="translate(-21.52 -21.03)"/><path class="cls-2" d="M589.05,140.88h4.08q0,13.63,0,27.28h-4.08Q589.11,154.51,589.05,140.88Z" transform="translate(-21.52 -21.03)"/><path class="cls-2" d="M51.13,150.31c4.09-1.92,10-.12,10.83,4.73,1.69,5.28-3.57,10.71-8.91,9.23C46.4,163.54,45.13,152.8,51.13,150.31Z" transform="translate(-21.52 -21.03)"/><path class="cls-2" d="M275.77,163.78c1.5-1.86,4.16-.74,4.75,1.34.48,2.89-.82,5.65-2.54,7.88h-3.93a17.48,17.48,0,0,0,3.08-3.89C276.27,167.52,273.83,165.57,275.77,163.78Z" transform="translate(-21.52 -21.03)"/><path class="cls-3" d="M31,50.78c8.23-.29,16.47,0,24.7-.17-4.19,3.08-8.55,6.16-11.53,10.51-1.34,1.8-2.65,4.26-5.22,4.32-4,.19-8.06-.29-12.07.2,0,26.87-.19,53.75.09,80.61,18.44.35,36.89.26,55.33.05.24-3.39-.07-6.78.08-10.16.57-2.76,3.29-4.33,5.08-6.26.15,8.74.05,17.48.07,26.22,0,3.76-1,8-4.26,10.19-2.67,2-6.14,1.85-9.31,1.88-14-.12-28,.1-42-.1-5.36.16-10.25-4.59-9.9-10q0-48.57,0-97.13C21.65,55.84,25.82,50.84,31,50.78Zm20.1,99.53c-6,2.49-4.73,13.23,1.92,14,5.34,1.48,10.6-4,8.91-9.23C61.14,150.19,55.22,148.39,51.13,150.31Z" transform="translate(-21.52 -21.03)"/><path class="cls-3" d="M69.23,56.32c5.92-.43,11.86-.09,17.78-.19,7.95.11,16.47-.93,23.71,3.14C124,66.61,130,84.87,123.46,98.62,120,106,113.84,112.38,106,115c-5.71,2-12.12-.39-17.65,2.38-4.43,2-7.18,6.15-10.64,9.35-2.62,2.39-5.16,4.86-7.92,7.08l-1.57-1.66c.19-5.22,1.07-10.4,1.75-15.57-4.34-1.82-9.13-2.76-12.91-5.72-10.63-7.56-15.15-22.36-10.84-34.63C49.61,66.2,58.58,57.8,69.23,56.32ZM59.44,78.68c-2.26,1-4.06,3.92-2.37,6.17,2.07,3.66,8.68,1.93,9.71,6.07-2.5,3.73-6.82.4-8.5-2.32-.8.84-2.54,1.42-1.92,2.87,1.8,4.1,7.51,4.57,11.21,3,3.09-1,4.67-5.72,1.77-7.78-3-1.75-6.58-2.2-9.68-3.82,1.24-1,2.48-3,4.35-2.12,1.46.82,2.66,2,4.07,2.91,1.19-.32,2.33-1.28,2-2.66C67.73,77.8,62.94,77.2,59.44,78.68Zm14.92.59a134.88,134.88,0,0,0,.07,14.36c.16,2.29,3.89,2.13,4-.11.42-3.46-.24-7,.64-10.42a2.91,2.91,0,0,1,4.84-.93c.81,3.77.07,7.67.54,11.48,0,2.09,3.64,2.14,3.93.19.49-3.35,0-6.77.55-10.11.3-2.17,3.48-3.56,4.87-1.47.94,3.8,0,7.77.59,11.62.48,1.92,3.69,1.89,4-.11A64.15,64.15,0,0,0,98.58,85c-.13-2,.19-4.63-1.82-5.86-2.69-2-6.22-.94-8.62,1-2.79-2.26-6.51-2.65-9.38-.32C77.41,78.4,75.58,76.82,74.36,79.27Zm28,5.36c2.29,3.43,7.22,2.63,10.12,5.27-.25,2.51-3.42,3.36-5.33,2.12a44,44,0,0,1-3.58-3.52c-.85.93-2.42,1.93-1.5,3.4,2.24,3.86,7.75,4.08,11.47,2.44,2.81-1.12,4.11-5.36,1.58-7.43-2.76-2.08-6.47-2.15-9.42-3.91.18-.4.56-1.18.74-1.58,2.6-2.33,5,.92,7.18,2.15a23.42,23.42,0,0,0,2.72-1.42c-1.54-2-3.48-4-6.17-4.1C106.35,77,100.57,80.1,102.35,84.63Z" transform="translate(-21.52 -21.03)"/><path class="cls-2" d="M430.33,69.31c3.85-5.12,10.54-6.94,16.67-7.11,8-.06,16,0,24.06,0V76.25c-8.35,0-16.71-.08-25.06,0-4.86-.09-4.93,8.08-.58,9,6.49,1.83,13.14,3,19.67,4.75a14,14,0,0,1,10.06,10.69c1,5.22,1,10.92-1.43,15.76a17.42,17.42,0,0,1-15.7,9.51q-14.07,0-28.16,0c.08-4.58.05-9.15,0-13.73,8.73,0,17.47,0,26.2-.12,4.73.08,5.06-8.07.83-9.11-7.42-2.53-15.9-1.87-22.63-6.33C425.46,91,423.68,77.37,430.33,69.31Z" transform="translate(-21.52 -21.03)"/><path class="cls-2" d="M483,67.85a6,6,0,0,1,5.86-5.95c3-.25,6.68-.21,8.33,2.78,5,9.72,9.31,19.82,14.26,29.59,4.53-9.5,9-19,13.58-28.5,2.82-6,14.15-4.95,14.66,2.1.31,19.39,0,38.78.15,58.17q-7.07,0-14.13,0c0-9.57,0-19.14.16-28.71-3.1,6-5.23,12.35-8.28,18.31-2.31,4.63-10,4.54-12.24-.12-3-5.81-5.3-12-8.23-17.8-.22,9.44-.05,18.88,0,28.32q-7.17,0-14.32,0C483.12,106.64,482.76,87.24,483,67.85Z" transform="translate(-21.52 -21.03)"/><path class="cls-2" d="M558.12,63.86c5.07-1.88,10.56-1.75,15.89-1.74,5.79.1,11.58.06,17.38.07-.12,4.66-.06,9.33,0,14-8.5.06-17-.14-25.49.15-4.67.31-4.36,8.24-.07,9,6.58,1.86,13.34,3,19.93,4.83a13.92,13.92,0,0,1,9.74,10.88c.9,5.44.89,11.43-2,16.32A17.55,17.55,0,0,1,578,126.06c-9.3,0-18.59,0-27.89,0,.06-4.58,0-9.15,0-13.72,8.95-.27,17.91.29,26.85-.27,4.45-.69,4.09-8.35-.14-9.17-6.78-2-14.13-1.93-20.54-5.11C548.92,94.07,545.18,85,547,77.05,548.26,71.22,552.37,65.84,558.12,63.86Z" transform="translate(-21.52 -21.03)"/><rect class="cls-1" x="391.62" y="5.02" width="172.35" height="26.66"/><path class="cls-4" d="M571.6,34a3.9,3.9,0,0,0-3.36,1.66A8.34,8.34,0,0,0,567,40.62a7.57,7.57,0,0,0,1.21,4.57,3.89,3.89,0,0,0,3.33,1.65,4.3,4.3,0,0,0,4.09-2.51V36.46A4.33,4.33,0,0,0,571.6,34Z" transform="translate(-21.52 -21.03)"/><path class="cls-4" d="M516.87,34a3.94,3.94,0,0,0-3,1.29,6.3,6.3,0,0,0-1.49,3.62H521v-.22a5.54,5.54,0,0,0-1.2-3.46A3.72,3.72,0,0,0,516.87,34Z" transform="translate(-21.52 -21.03)"/><path class="cls-4" d="M553.69,46.84A3.84,3.84,0,0,0,557,45.21a8.38,8.38,0,0,0,1.18-4.92A7.94,7.94,0,0,0,557,35.66,3.84,3.84,0,0,0,553.66,34a4.32,4.32,0,0,0-4.18,2.7v7.41A4.44,4.44,0,0,0,553.69,46.84Z" transform="translate(-21.52 -21.03)"/><path class="cls-2" d="M431.75,40.28a15.66,15.66,0,0,0-3.57-1.18,10.07,10.07,0,0,1-3-1,1.78,1.78,0,0,1-.84-1.6,2.19,2.19,0,0,1,.9-1.82,4,4,0,0,1,2.51-.7,3.84,3.84,0,0,1,2.58.87,2.64,2.64,0,0,1,1,2.08h3a4.78,4.78,0,0,0-1.82-3.85,7.2,7.2,0,0,0-4.75-1.51A7,7,0,0,0,423.14,33a4.44,4.44,0,0,0-1.78,3.57,3.75,3.75,0,0,0,.62,2.18,5,5,0,0,0,1.94,1.59,15.28,15.28,0,0,0,3.55,1.14,9,9,0,0,1,3.13,1.13,2.17,2.17,0,0,1,.9,1.85,2.08,2.08,0,0,1-1,1.8,4.77,4.77,0,0,1-2.68.67,4.59,4.59,0,0,1-2.92-.86,3.05,3.05,0,0,1-1.18-2.34h-2.94a4.88,4.88,0,0,0,.9,2.83,5.91,5.91,0,0,0,2.48,2,8.79,8.79,0,0,0,3.66.73,7.77,7.77,0,0,0,4.78-1.39,4.38,4.38,0,0,0,1.85-3.69,4,4,0,0,0-.66-2.33A5.18,5.18,0,0,0,431.75,40.28Z" transform="translate(-21.52 -21.03)"/><path class="cls-2" d="M456.61,31.54a6.64,6.64,0,0,0-3.25.76,6.56,6.56,0,0,0-2.24,2c-.87-1.84-2.5-2.76-4.91-2.76a6.35,6.35,0,0,0-5.1,2.22l-.08-1.9h-2.78V49h2.94V36.49a3.94,3.94,0,0,1,4-2.46c2.44,0,3.67,1.25,3.67,3.74V49h2.95V37.63A4,4,0,0,1,453,35a3.92,3.92,0,0,1,2.72-1,3.73,3.73,0,0,1,2.83.91,4,4,0,0,1,.84,2.75V49h2.94V37.52C462.29,33.53,460.38,31.54,456.61,31.54Z" transform="translate(-21.52 -21.03)"/><path class="cls-2" d="M477.06,40.28a15.66,15.66,0,0,0-3.57-1.18,10.07,10.07,0,0,1-3-1,1.78,1.78,0,0,1-.84-1.6,2.19,2.19,0,0,1,.9-1.82A4,4,0,0,1,473,34a3.84,3.84,0,0,1,2.58.87,2.64,2.64,0,0,1,1,2.08h3a4.78,4.78,0,0,0-1.82-3.85A7.2,7.2,0,0,0,473,31.54,7,7,0,0,0,468.45,33a4.44,4.44,0,0,0-1.78,3.57,3.83,3.83,0,0,0,.62,2.18,5,5,0,0,0,1.94,1.59,15.28,15.28,0,0,0,3.55,1.14,9,9,0,0,1,3.13,1.13,2.17,2.17,0,0,1,.9,1.85,2.08,2.08,0,0,1-1,1.8,4.77,4.77,0,0,1-2.68.67,4.59,4.59,0,0,1-2.92-.86A3.05,3.05,0,0,1,469,43.73h-2.94a4.88,4.88,0,0,0,.9,2.83,5.91,5.91,0,0,0,2.48,2,8.79,8.79,0,0,0,3.66.73,7.77,7.77,0,0,0,4.78-1.39,4.38,4.38,0,0,0,1.85-3.69,4,4,0,0,0-.66-2.33A5.18,5.18,0,0,0,477.06,40.28Z" transform="translate(-21.52 -21.03)"/><path class="cls-2" d="M485.45,45.7a1.76,1.76,0,0,0-1.36.5,1.84,1.84,0,0,0-.45,1.27,1.72,1.72,0,0,0,.45,1.22,1.76,1.76,0,0,0,1.36.49,1.83,1.83,0,0,0,1.38-.49,1.68,1.68,0,0,0,.46-1.22,1.8,1.8,0,0,0-.46-1.27A1.84,1.84,0,0,0,485.45,45.7Z" transform="translate(-21.52 -21.03)"/><path class="cls-2" d="M500.17,31.54A6.29,6.29,0,0,0,495,34l-.1-2.15h-2.78V49h2.94V36.79a5.15,5.15,0,0,1,1.69-2,4.21,4.21,0,0,1,2.51-.76,3.44,3.44,0,0,1,2.6.89,4,4,0,0,1,.85,2.74V49h2.94V37.68Q505.61,31.55,500.17,31.54Z" transform="translate(-21.52 -21.03)"/><path class="cls-2" d="M516.87,31.54a6.86,6.86,0,0,0-3.81,1.14,7.58,7.58,0,0,0-2.73,3.13,10.32,10.32,0,0,0-1,4.56v.54a8.47,8.47,0,0,0,2.2,6.13,7.55,7.55,0,0,0,5.69,2.29A7.22,7.22,0,0,0,523.72,46l-1.8-1.39A6.54,6.54,0,0,1,520,46.3a5.15,5.15,0,0,1-2.63.63,4.68,4.68,0,0,1-3.62-1.56,6.11,6.11,0,0,1-1.49-4.1h11.65V40.05a9.49,9.49,0,0,0-1.86-6.3A6.44,6.44,0,0,0,516.87,31.54ZM521,38.86h-8.61a6.3,6.3,0,0,1,1.49-3.62,3.94,3.94,0,0,1,3-1.29,3.72,3.72,0,0,1,2.93,1.23,5.54,5.54,0,0,1,1.2,3.46Z" transform="translate(-21.52 -21.03)"/><path class="cls-2" d="M528.39,31.86h-3.13v2.27h3.13V44.76a5.14,5.14,0,0,0,1,3.38,3.69,3.69,0,0,0,3,1.19,8.54,8.54,0,0,0,2.25-.32V46.65a7.66,7.66,0,0,1-1.4.19,1.8,1.8,0,0,1-1.46-.52,2.41,2.41,0,0,1-.43-1.55V34.13h3.21V31.86h-3.21V27.71h-2.94Z" transform="translate(-21.52 -21.03)"/><path class="cls-2" d="M539.85,45.7a1.76,1.76,0,0,0-1.36.5,1.84,1.84,0,0,0-.45,1.27,1.72,1.72,0,0,0,.45,1.22,1.76,1.76,0,0,0,1.36.49,1.82,1.82,0,0,0,1.38-.49,1.68,1.68,0,0,0,.46-1.22,1.66,1.66,0,0,0-1.84-1.77Z" transform="translate(-21.52 -21.03)"/><path class="cls-2" d="M546.54,49h2.7l.15-2a6,6,0,0,0,5,2.3,5.81,5.81,0,0,0,4.87-2.39,10.16,10.16,0,0,0,1.81-6.32v-.25a10.51,10.51,0,0,0-1.79-6.47,5.84,5.84,0,0,0-4.92-2.36,6,6,0,0,0-4.91,2.21v-6h-2.94Zm2.94-12.28a4.32,4.32,0,0,1,4.18-2.7A3.84,3.84,0,0,1,557,35.66a7.94,7.94,0,0,1,1.16,4.63A8.38,8.38,0,0,1,557,45.21a3.84,3.84,0,0,1-3.29,1.63,4.44,4.44,0,0,1-4.21-2.7Z" transform="translate(-21.52 -21.03)"/><path class="cls-2" d="M575.66,27.71V33.6a6.4,6.4,0,0,0-9.7.34,10,10,0,0,0-1.87,6.35v.22A10.21,10.21,0,0,0,566,46.89a5.9,5.9,0,0,0,4.87,2.44,6,6,0,0,0,4.91-2.16L575.9,49h2.7V27.71Zm0,16.62a4.3,4.3,0,0,1-4.09,2.51,3.89,3.89,0,0,1-3.33-1.65A7.57,7.57,0,0,1,567,40.62a8.34,8.34,0,0,1,1.21-4.93A3.9,3.9,0,0,1,571.6,34a4.33,4.33,0,0,1,4.06,2.43Z" transform="translate(-21.52 -21.03)"/></svg>